<svg width="721" height="131" xmlns="http://www.w3.org/2000/svg" xmlns:xlink="http://www.w3.org/1999/xlink" overflow="hidden"><g transform="translate(-388 -394)"><path d="M459.803 484.093C478.929 501.255 440.059 518.809 427.153 517.971 414.246 517.133 418.754 512.023 424.037 511.767 429.32 511.512 457.791 517.887 458.851 516.44 459.91 514.992 428.697 506.884 426.229 498.779 423.76 490.674 443.236 482.886 444.041 467.809 444.845 452.731 438.864 451.066 434.597 444.117 430.33 437.169 429.272 427.286 435.941 423.019 442.611 418.751 447.956 417.286 454.818 421.094 458.38 416.296 460.569 411.533 461.831 408.43 463.092 405.327 462.215 403.981 462.385 402.475 462.555 400.969 464.534 400.121 462.85 399.394 461.166 398.667 445.211 401.552 441.862 399.833 438.512 398.115 440.645 396.691 441.711 395.105 436.005 394.523 419.137 396.478 415.788 398.205 412.439 399.931 410.874 403.413 411.615 406.496 412.356 409.58 410.683 410.397 406.898 412.747 403.114 415.097 398.123 421.073 403.493 426.447 408.863 431.821 415.924 433.788 420.364 431.051 424.804 428.314 421.999 424.084 418.672 418.632 415.346 413.181 415.031 411.983 416.033 410.391 417.035 408.799 420.53 410.318 419.473 411.664 418.417 413.011 413.278 415.283 409.693 418.471 406.109 421.659 400.657 426.24 397.964 430.792 395.271 435.344 393.177 441.233 393.535 445.783 393.892 450.333 399.93 454.761 400.108 458.092 400.287 461.423 398.217 465.204 394.603 465.771 390.99 466.338 387.251 465.448 389.886 462.353 392.521 459.259 397.794 458.909 401.661 459.941 405.528 460.973 409.391 465.863 413.088 468.547 416.785 471.231 420.314 473.637 423.842 476.043" stroke="#4D4D4D" stroke-width="2" stroke-linecap="round" stroke-linejoin="round" stroke-miterlimit="10" fill="none" fill-rule="evenodd"/><path d="M1095.08 500.259 1104.2 500.259 1108 503.429 1108 505.955C1107.25 509.69 1105.35 513.089 1102.29 516.153L1096.91 516.716 1093.12 514.86 1091.45 507.985C1092.18 504.955 1093.39 502.38 1095.08 500.259ZM968.148 490.8 970.82 493.123 970.907 495.932 968.489 498.214 966.94 498.059 965.287 497.163 962.146 496.833C957.43 497.43 952.572 497.821 947.569 498.007L945.286 492.923C952.94 492.071 960.561 491.363 968.148 490.8ZM1010.07 481.058 1005.39 485.833C1003.77 488.753 1002.27 491.904 1000.88 495.285L1000.88 501.287 1000.36 504.765 1002.27 509.819 1003.92 510.566 1007.99 508.668C1011.97 506.32 1014.75 503.076 1016.34 498.934L1016.83 497.478 1016.83 491.647 1012.54 481.058ZM911.002 481.058 906.324 485.833C904.702 488.753 903.196 491.904 901.805 495.285L901.805 501.287 901.292 504.765 903.203 509.819 904.85 510.566 908.922 508.668C912.896 506.32 915.679 503.076 917.271 498.934L917.756 497.478 917.756 491.647 913.465 481.058ZM762.895 481.058 758.218 485.833C756.596 488.753 755.089 491.904 753.698 495.285L753.698 501.287 753.185 504.765 755.097 509.819 756.744 510.566 760.816 508.668C764.79 506.32 767.573 503.076 769.165 498.934L769.65 497.478 769.65 491.647 765.359 481.058ZM611.057 479.472C607.737 481.934 605.285 485.205 603.703 489.286L601.141 497.46 601.141 505.306 602.371 507.77 602.776 508.056 603.088 507.592C608.595 501.758 612.305 495.238 614.22 488.032L614.22 481.732 613.488 479.898ZM646.544 474.481C647.277 474.495 648.037 474.603 648.826 474.807 650.044 477.329 650.87 479.849 651.301 482.37L651.301 488.071 651.577 489.178 652.164 489.178 654.484 485.931C657.494 483.284 661.118 481.596 665.355 480.867L671.281 483.315C674.205 491.591 677.161 499.452 680.15 506.896L682.981 509.621 682.981 513.125 675.632 513.125 668.357 505.844C667.297 500.116 666.138 494.863 664.881 490.084L663.826 489.732C659.774 492.624 656.782 496.358 654.85 500.933L653.351 508.037 653.351 514.986C651.912 517.234 649.779 517.976 646.95 517.214L643.391 514.247 642.85 505.166 643.364 504.067 642.85 503.712 642.85 491.516 640.699 476.935C642.397 475.259 644.346 474.441 646.544 474.481ZM859.721 473.316C860.334 473.271 860.976 473.292 861.645 473.377 865.419 473.377 868.665 475.125 871.382 478.622L872.488 484.423 867.005 485.73 862.167 481.626C860.353 483.409 858.649 485.736 857.055 488.606L854.547 499.647 854.547 505.978 856.71 509.44 860.017 510.313C863.945 508.772 868.292 507.062 873.057 505.184L876.076 507.285 876.076 511.266C870.86 516.114 864.987 518.717 858.457 519.075 854.343 518.332 850.982 516.291 848.374 512.954L845.136 506.51 845.136 497.427C845.844 488.979 849.119 481.662 854.96 475.475 856.295 474.17 857.882 473.45 859.721 473.316ZM1011.9 471.745 1017.64 475.121C1022.26 481.595 1025.14 488.762 1026.26 496.623 1025.12 503.523 1021.78 509.22 1016.25 513.715 1012.8 516.721 1008.84 518.442 1004.37 518.881 1000.95 518.443 997.914 517.087 995.26 514.811L991.465 508.298 991.465 495.413C993.22 487.61 996.968 480.482 1002.71 474.028 1005.37 472.506 1008.43 471.745 1011.9 471.745ZM912.833 471.745 918.568 475.121C923.19 481.595 926.064 488.762 927.192 496.623 926.047 503.523 922.71 509.22 917.182 513.715 913.73 516.721 909.768 518.442 905.298 518.881 901.879 518.443 898.842 517.087 896.189 514.811L892.394 508.298 892.394 495.413C894.149 487.61 897.897 480.482 903.636 474.028 906.297 472.506 909.363 471.745 912.833 471.745ZM764.727 471.745 770.462 475.121C775.083 481.595 777.958 488.762 779.085 496.623 777.941 503.523 774.604 509.22 769.076 513.715 765.623 516.721 761.662 518.442 757.192 518.881 753.773 518.443 750.736 517.087 748.083 514.811L744.287 508.298 744.287 495.413C746.043 487.61 749.791 480.482 755.53 474.028 758.191 472.506 761.257 471.745 764.727 471.745ZM605.84 471.325 611.287 471.325C615.007 472.085 618.362 473.961 621.353 476.954 622.801 480.503 623.707 484.459 624.07 488.823L624.07 497.605 627.377 504.701 628.912 505.211 631.143 510.946 627.902 513.74C624.5 513.355 621.86 511.657 619.981 508.647L617.584 504.332 617.373 503.993C614.859 509.203 610.894 513.785 605.477 517.741L600.598 517.741 595.079 513.434C592.916 510.076 591.834 506.238 591.834 501.92L591.834 496.196C592.538 487.454 596.207 479.764 602.84 473.127ZM1061.04 469.827C1058.08 472.22 1055.09 473.84 1052.06 474.688L1052.06 485.328 1053.87 487.844 1054.31 487.844 1056.31 486.629C1060.82 483.644 1063.97 479.926 1065.78 475.475L1066.17 472.638 1065.5 471.099ZM519.124 469.378C523.33 469.761 526.792 471.507 529.51 474.616L530.081 479.371 524.787 480.704 523.599 478.54 518.832 477.625 511.447 480.906 510.602 483.63 514.459 489.888 523.658 497.558C526.198 500.463 527.656 503.852 528.03 507.725L524.169 513.384C520.124 517.042 515.311 518.696 509.729 518.348 505.32 517.262 501.486 514.691 498.229 510.635L496 506.52 497.317 502.926 502.338 502.311C504.194 505.958 506.493 508.557 509.236 510.108L511.839 510.108C514.591 509.13 516.864 507.443 518.658 505.05L518.658 504.384C511.631 498.691 505.794 492.147 501.15 484.754L500.614 478.423C502.525 474.562 505.392 472.068 509.216 470.942ZM1047.23 462.092 1052.62 464.964C1055 462.776 1058.21 461.826 1062.26 462.116 1065.69 462.787 1068.74 464.5 1071.42 467.255L1074.41 472.25 1074.41 477.329C1073.11 481.608 1070.78 485.462 1067.43 488.889L1066.31 489.209 1065.98 490.359C1062.48 493.479 1058.35 495.186 1053.58 495.478L1052.06 495.068 1052.06 499.083 1051.64 503.236 1052.06 504.899 1051.64 505.543 1051.64 510.352 1052.67 516.024 1051.05 523.328 1046.95 524 1043.38 520.653 1043.38 505.383 1042.97 503.511 1043.8 502.448 1043.8 494.922 1044.22 494.512 1044.22 490.388 1043.81 487.183 1044.22 486.59 1044.22 475.282 1043.8 474.871 1043.8 466.233 1043.29 464.059ZM698.099 451.729 702.155 451.729 706.486 455.422 706.486 483.452 707.682 483.74C712.407 481.478 716.711 478.264 720.593 474.096L722.94 474.096 726.617 476.634 727.215 480.623C721.45 486.069 715.538 489.728 709.477 491.598L709.477 492.376C715.274 496.287 721.484 500.147 728.105 503.954L729.265 509.191 725.543 511.175C722.315 509.277 719.151 507.447 716.049 505.686L707.427 500.881 707.427 508.191 708.451 516.538C707.089 518.434 705.026 519.193 702.262 518.815L698.121 514.692 698.121 512.514 698.634 511.104 698.121 508.751 698.634 504.476 698.121 504.02 698.121 498.177C697.475 495.29 696.31 492.503 694.626 489.816L697.598 486.407 697.598 479.695 697.075 479.181 697.075 466.459 696.552 465.946 696.552 457.075 696.039 454.605ZM550.795 449.702C551.385 449.631 552.016 449.644 552.689 449.74L556.944 452.804 556.944 462.026 557.961 467.568 557.961 478.812 557.439 482.304 557.519 482.304 559.056 481.277 564.673 481.277C568.537 483.211 571.206 486.207 572.681 490.265L574.262 497.131 574.262 502.09 577.187 510.382 580.414 513.073 580.414 515.902 578.316 518.562 574.869 518.562 570.269 515.8C565.671 508.011 563.075 499.88 562.484 491.407L561.522 491.065C558.426 496.657 556.542 503.085 555.87 510.349L555.87 516.709 549.906 518.562 545.622 515.033 545.622 510.274 546.564 504.626 546.564 498.503 547.609 493.477 547.609 485.996 548.132 485.483 548.132 478.464 548.55 477.95 548.55 471.531 548.132 471.017 548.132 461.093 546.595 452.589C547.624 450.876 549.024 449.914 550.795 449.702ZM575.8 422.493C575.061 422.675 574.365 423.177 573.711 424L572.871 425.519 573.024 425.889 572.871 427.246 573.245 428.464 573.643 428.464 573.968 428.269C575.306 426.615 576.224 424.837 576.721 422.937ZM527.384 413.901C526.007 416.662 525.03 419.616 524.453 422.763L524.453 424.299 524.148 425.343 524.148 427.75 523.994 428.401 524.073 428.621 525.424 426.855C525.836 426.205 526.188 425.523 526.48 424.809 527.479 422.695 528.12 420.395 528.401 417.911L528.401 415.014 528.054 414.292ZM601.161 411.496 602.685 412.087 602.806 413.038C602.233 413.674 602.002 414.42 602.111 415.273L604.729 417.298C605.348 417.903 605.596 418.717 605.475 419.74L604.264 420.1 602.365 418.989 601.818 417.712 600.592 416.939C599.622 418.21 598.78 419.58 598.067 421.051L596.635 421.787 595.305 421.059 595.127 419.869C596.99 417.281 598.603 414.613 599.966 411.863ZM612.242 410.398 613.558 410.398 614.758 411.374 614.758 412.281 614.049 412.743C613.541 413.325 613.286 413.975 613.286 414.694L615.706 416.207 616.015 418.127 615.049 418.45C613.678 417.859 612.389 417.174 611.179 416.394 610.112 417.394 609.444 418.555 609.177 419.878L609.569 421.537 610.791 421.537 614.901 420.8 616.026 421.37 616.353 422.698C615.127 423.232 613.828 423.626 612.453 423.88L611.358 423.727 609.334 424.461 609.177 424.575 609.177 427.169 609.021 427.353 609.021 430.277 609.389 432.702C609.099 433.203 608.612 433.408 607.927 433.317L606.29 431.988 606.05 431.431 606.05 426.598 606.269 426.383 606.269 424.432 604.479 424.432 599.063 425.169 597.531 423.834 597.531 422.988 598.126 422.641 600.579 422.641 602.235 422.273 605.189 422.273 606.268 421.913 606.454 421.743 606.454 419.902 606.269 419.151 606.608 418.397 606.485 417.464ZM549.922 410.219 551.406 410.219C552.984 410.332 554.314 410.984 555.395 412.174L555.63 412.409 555.63 414.725C553.669 419.642 551.379 424.335 548.762 428.803L548.873 428.845 551.033 428.845C551.646 428.324 552.449 428.063 553.441 428.063 553.98 428.6 554.25 429.251 554.25 430.014 553.412 430.945 552.378 431.411 551.147 431.411L548.418 431.411C547.307 431.411 546.347 431.023 545.539 430.247L545.192 429.119C548.481 423.963 551.026 418.622 552.827 413.096 552.355 412.721 551.729 412.582 550.948 412.679L548.406 413.914 546.928 413.042 546.572 411.787C547.606 411.069 548.723 410.547 549.922 410.219ZM501.887 410.219 503.372 410.219C504.95 410.332 506.28 410.984 507.361 412.174L507.595 412.409 507.595 414.725C505.634 419.642 503.345 424.335 500.727 428.803L500.839 428.845 502.999 428.845C503.612 428.324 504.415 428.063 505.407 428.063 505.946 428.6 506.216 429.251 506.216 430.014 505.378 430.945 504.343 431.411 503.112 431.411L500.383 431.411C499.272 431.411 498.313 431.023 497.505 430.247L497.158 429.119C500.447 423.963 502.991 418.622 504.792 413.096 504.321 412.721 503.695 412.582 502.914 412.679L500.372 413.914 498.894 413.042 498.537 411.787C499.571 411.069 500.688 410.547 501.887 410.219ZM527.791 409.961 528.761 410.727 528.911 411.447 530.057 412.183C530.594 413.057 530.918 414.035 531.028 415.116L531.028 418.222 530.875 418.375 530.875 419.784C530.169 423.752 528.527 427.385 525.948 430.683L524.103 431.483 522.208 430.677 521.365 429.02 521.365 425.948 521.521 425.794 521.521 424.237C522.037 419.176 523.577 414.476 526.141 410.137ZM575.172 409.225 576.182 410.019 576.182 411.243C574.971 414.365 574.072 417.508 573.484 420.67L573.513 420.67 574.279 420.364 576.971 420.364 578.987 421.526 579.34 422.914C578.919 425.833 577.61 428.38 575.416 430.556L573.224 431.207 571.857 430.4C570.509 428.922 569.728 427.235 569.516 425.339 570.525 419.963 571.899 414.653 573.639 409.408ZM603.476 402 605.438 402 606.602 402.975 606.602 403.542 606.019 404.677 606.019 406.848C606.599 407.218 607.246 407.348 607.963 407.239L608.134 407.032 610.597 407.032 612.659 406.633 614.236 407.448 614.236 408.41 613.601 409.17 610.399 409.755 608.13 409.755 607.099 409.54 606.945 409.755 604.474 409.755C601.803 410.236 599.189 410.962 596.632 411.933L595.323 410.645 595.323 409.855C597.788 408.726 600.322 407.916 602.926 407.425L603.142 407.275 603.142 404.07 603.327 403.354 603.173 402.643Z" fill="#4D4D4D" fill-rule="evenodd"/></g></svg>