<svg width="418" height="70" xmlns="http://www.w3.org/2000/svg" xmlns:xlink="http://www.w3.org/1999/xlink" overflow="hidden"><g transform="translate(-177 -417)"><path d="M362.347 473.017C366.57 475.125 370.536 477.608 374.244 480.465L374.596 483.206C373.798 483.815 372.836 484.002 371.709 483.768 367.626 481.379 364.013 478.498 360.868 475.125L360.868 473.579ZM339.468 470.066 341.861 470.066 344.044 471.893 344.044 473.017 342.213 475.196 341.509 475.196C337.989 478.568 335.432 482.292 333.836 486.368L331.865 487 328.556 484.4 328.556 482.925ZM271.324 456.786 267.241 458.051 266.537 458.824 266.537 464.164 269.705 465.148 276.815 463.391 277.589 462.618 275.548 457.278ZM584.863 455.662 577.612 456.716 577.612 457.84C579.771 461.915 581.108 466.366 581.625 471.19L582.329 471.19 582.681 473.72C579.771 474.938 576.744 475.781 573.599 476.25L569.657 476.25 566.419 475.547C565.668 476.531 565.41 477.748 565.645 479.201L566.419 480.957 568.953 481.73 585.567 479.201 585.567 478.428 585.919 478.076 585.919 473.369 588.453 456.365C587.515 455.662 586.318 455.428 584.863 455.662ZM283.432 455.1 280.546 456.435 279.982 458.191 281.39 462.337 281.954 463.04 287.163 463.04 288.712 462.056C289.932 460.416 290.401 458.472 290.12 456.224L288.993 455.1ZM591.762 450.603 594.648 452.781 595 454.608C592.841 461.119 591.386 467.982 590.635 475.196L590.635 481.309 590.987 483.135 588.101 483.838 587.749 483.487 583.807 483.487 570.009 485.665 568.179 485.314 565.293 485.665 562.758 484.26 560.576 474.844 560.576 469.785 563.11 469.012 568.531 471.963 572.543 471.963 576.556 470.488 576.908 469.434 574.022 458.894C571.581 457.957 569.164 456.88 566.771 455.662L565.996 453.484 568.179 452.781 568.531 453.132 573.247 453.132 573.599 452.781 580.498 452.781 580.85 452.43 584.511 452.43ZM246.544 450.269C247.037 450.187 247.577 450.205 248.163 450.322L250.838 452.641 252.035 460.791 252.035 466.975 251.261 470.347 251.261 476.952 254.288 477.444 278.997 473.65 284.629 473.65 285.051 473.228 297.582 473.228 298.849 473.65 303.565 472.736 305.818 456.013 305.325 454.749 306.24 451.095 308.493 450.743 311.52 452.711 311.872 453.695 309.338 470.839 309.338 475.266 310.042 477.303 306.592 478.639 303.213 477.093 291.316 477.093 289.556 476.671 285.192 477.514 279.279 477.514 249.008 482.503 245.981 480.606 245.136 478.006 247.248 462.478C246.967 458.168 246.286 454.28 245.207 450.814 245.606 450.533 246.051 450.351 246.544 450.269ZM272.098 444.56 268.297 446.457 267.311 452.289 270.057 453.413 275.266 451.868 275.688 448.425 274.703 445.052ZM512.151 444.49 504.407 463.742 508.279 463.742 511.447 463.04 512.151 462.337 512.151 457.067 512.503 456.716 512.503 452.219 512.855 451.868 512.855 448.354 513.207 448.003 513.207 444.49ZM476.108 444.49 468.364 463.742 472.236 463.742 475.404 463.04 476.108 462.337 476.108 457.067 476.46 456.716 476.46 452.219 476.812 451.868 476.812 448.354 477.164 448.003 477.164 444.49ZM281.179 443.295C279.865 445.263 279.349 447.464 279.631 449.9L280.123 451.587 284.418 452.008 288.993 451.095 290.12 449.97 290.12 444.911 288.5 443.295ZM434.926 440.766 436.404 440.766 438.938 442.593 439.642 444.349 436.404 446.879 435.63 446.879 435.278 448.003 424.437 458.472 424.437 459.526 425.141 461.353 426.619 462.126 437.108 472.244 437.108 474.001 435.982 475.477 434.926 475.477 431.687 474.001C429.012 470.16 425.868 466.553 422.254 463.18L421.128 463.18C416.81 468.239 413.197 473.533 410.287 479.06L408.456 479.833 406.274 478.006 406.274 474.774 417.538 457.77 406.697 445.122 406.697 442.944 408.456 442.593 411.765 444.349 412.117 445.474 413.525 446.879 420.776 455.24C424.906 449.947 429.622 445.122 434.926 440.766ZM514.615 434.653C515.553 435.355 516.14 436.292 516.375 437.463L518.839 439.22 518.839 442.733 517.783 446.598 517.783 451.868 517.079 455.311 517.079 460.58 516.727 462.337C517.665 463.274 518.956 463.625 520.599 463.391L522.71 461.634 523.414 461.634 526.934 463.391 527.638 466.202C526.465 467.607 525.057 468.075 523.414 467.607L519.542 466.553 516.727 467.607 516.023 470.418 516.023 476.039 516.727 479.903 516.375 481.66 516.727 482.714 515.319 485.524 511.095 482.011 511.095 475.687 511.447 475.336 511.447 469.364 511.799 467.607 509.335 466.904C506.754 467.841 503.938 468.427 500.887 468.661L499.479 467.607C498.306 466.904 497.837 465.967 498.071 464.796L511.447 435.004ZM478.572 434.653C479.51 435.355 480.097 436.292 480.332 437.463L482.795 439.22 482.795 442.733 481.74 446.598 481.74 451.868 481.036 455.311 481.036 460.58 480.684 462.337C481.622 463.274 482.913 463.625 484.555 463.391L486.667 461.634 487.371 461.634 490.891 463.391 491.595 466.202C490.422 467.607 489.014 468.075 487.371 467.607L483.499 466.553 480.684 467.607 479.98 470.418 479.98 476.039 480.684 479.903 480.332 481.66 480.684 482.714 479.276 485.524 475.052 482.011 475.052 475.687 475.404 475.336 475.404 469.364 475.756 467.607 473.292 466.904C470.711 467.841 467.895 468.427 464.844 468.661L463.436 467.607C462.263 466.904 461.794 465.967 462.028 464.796L475.404 435.004ZM293.639 427.064 296.596 429.242 296.596 430.086C295.376 431.491 293.757 432.053 291.739 431.772L283.01 431.772 280.546 432.826 279.56 438.587 280.827 439.712 289.627 439.712 291.105 439.36 295.259 440.977 295.399 441.117 295.399 453.132 294.977 456.154 295.399 457.348 294.977 459.035 295.751 462.407 294.555 464.867 287.797 466.483 283.08 466.483 268.297 469.434 264.284 469.434 261.327 467.537 260.905 462.337 261.327 461.915 261.327 454.116 262.595 447.792 262.595 443.506 263.298 440.977 266.678 440.625 270.127 441.398 274.562 439.641 275.336 439.079 275.336 434.091 271.394 433.177 259.216 435.988 256.188 433.458 256.188 431.983C262.102 430.671 268.156 429.453 274.351 428.329L280.546 428.329 280.898 427.907 285.614 427.907ZM199.668 425.94 196.781 426.643 191.783 426.643 191.361 427.064 187.771 427.064 186.715 428.469 186.715 435.636 183.477 448.284C184.415 448.987 185.495 449.221 186.715 448.987L187.067 448.635 191.009 448.635 193.191 448.284 193.191 446.106 191.783 442.522 191.783 436.761 191.361 434.231 192.135 432.756 195.022 432.404C196.664 433.622 198.447 434.465 200.372 434.934L204.032 434.934 204.736 432.756 202.202 427.415 201.498 427.064 201.498 425.94ZM204.032 421.302C205.44 422.474 206.52 423.902 207.271 425.589L207.623 427.415 207.271 428.469 210.861 437.815 210.157 439.29 202.554 439.29 196.781 438.166 196.078 441.047C196.547 444.888 197.744 448.495 199.668 451.868 198.494 452.57 197.18 452.805 195.725 452.57L195.374 452.219 190.305 452.219C186.691 452.922 183.078 453.765 179.464 454.749L177 452.219 177 450.743C179.394 443.811 181.06 436.503 181.998 428.821L180.942 423.41 183.828 422.708 185.588 423.41 190.657 423.41ZM347.845 418 349.957 418.984 350.661 423.691 352.421 424.254 357.067 422.567 362.558 422.567 365.092 424.394 365.092 425.307C360.681 426.572 355.87 427.767 350.661 428.891L350.168 431.702 351.294 432.896 356.574 432.896 358.404 432.545 361.079 435.145C359.578 436.222 357.536 436.761 354.955 436.761L352.35 436.339 350.661 436.901 350.238 439.923C351.552 441.656 353.148 442.218 355.025 441.609L358.686 440.695 364.247 440.695 364.67 440.344 368.401 440.344 370.513 442.171 370.513 442.874C369.339 444.045 368.002 444.63 366.5 444.63L355.87 444.63 350.309 448.565 349.394 451.516 350.238 452.359 358.052 452.359 359.812 453.273 360.094 455.17 355.941 457.629 355.941 459.737 357.489 459.737 364.036 457.7 366.43 458.754 367.063 460.229C365.655 461.681 363.919 462.642 361.854 463.11L357.208 463.11 354.321 465.499 354.321 467.607 354.744 468.099 354.744 474.212 354.321 474.704 354.321 479.201 352.35 483.838 349.183 484.541C348.197 483.932 347.704 482.925 347.704 481.519 349.018 478.521 349.816 475.359 350.098 472.034L350.098 467.185 348.971 466.061 344.114 466.061 341.65 466.412C339.35 466.693 337.45 465.991 335.948 464.304L335.314 462.407 345.592 459.175 345.592 457.418 343.41 457.418 339.468 457.77 337.426 454.327 346.015 446.246 342.424 446.246 334.962 447.933 329.894 447.933 326.937 444.982 326.937 444.209 327.782 443.647 337.637 443.647 345.522 441.96 346.015 438.869 342.917 438.377 338.482 439.501 336.018 437.112 336.018 436.058 345.522 433.177 346.015 430.858C344.372 429.781 342.636 429.406 340.805 429.734L334.118 430.507 331.654 427.064 332.358 426.291 336.441 426.291 337.989 425.87 340.453 426.291 345.522 424.886 345.944 421.583 345.311 418.351Z" fill="#4D4D4D" fill-rule="evenodd"/></g></svg>